<?xml version="1.0" encoding="UTF-8"?>
<svg id="Layer_1" xmlns="http://www.w3.org/2000/svg" version="1.1" viewBox="0 0 250 250">
  <!-- Generator: Adobe Illustrator 29.1.0, SVG Export Plug-In . SVG Version: 2.1.0 Build 142)  -->
  <defs>
    <style>
      .st0 {
        fill: #9e9e9e;
      }

      .st1 {
        fill: #ebecec;
      }
    </style>
  </defs>
  <path class="st1" d="M145.8,103.5c15.8-5,33.9.2,44,13.5,1.6,2.2,4.8,9.9,5.2,10.3,1.7,1.4,10.6,2.4,13.8,4.7s3.6,3.3,7.9,6.1,7.8,9.1,9.5,11.5c16,21.7-1.9,59.4-28.2,63.7-34.1.2-72.9,4-106.8,1.3-22.3-1.8-36-22.3-26-43.1,1.6-3.3,7.6-10.3,10.5-12s5-1.7,6-2c2.3-.7,4.6-1.1,7-1-2.3-20,15.1-33.6,33.9-27,1.8-8.8,11.3-19.9,19.1-24s3.8-1.9,4-2Z"/>
  <path class="st0" d="M122.8,76.5c1,.3,1.9.7,3,1,.8,4.1,5.5,9.8,10,10,.2.9,1.2,2.5,2,3-.5,5.4,3.2,9.8,4,15-7.8,4.1-17.3,15.2-19.1,24-18.9-6.6-36.3,7.1-33.9,27-2.4-.1-4.7.3-7,1-36-15.3-38.2-67.2-1.4-82.9,16.7-7.1,26.4-2.9,42.4,1.9Z"/>
  <path class="st0" d="M122.8,76.5c-15.9-4.8-25.7-8.9-42.4-1.9-36.9,15.6-34.6,67.5,1.4,82.9-1,.3-5.7,1.8-6,2-19.7-11.6-30.4-32-25.3-54.8s32.9-42.9,59.5-36.9,13.2,3.2,12.8,8.7Z"/>
  <path class="st0" d="M52.5,152.7c3.7-.8,8.2.3,9.1,4.5,1.4,6.9-16.9,25.4-22.1,13s8.8-16.6,13-17.5ZM56.8,156.5c-2.8-2.8-18.1,12.7-11.5,14,3.4-.3,14.5-11,11.5-14Z"/>
  <path class="st0" d="M148.5,56.7c8.1-1.8,11.1,5.8,6.3,12.3-3.6,4.8-10.3,11.7-16.8,8.8-9.6-4.4,5.6-20,10.5-21.1ZM149.5,60.6c-1.4.4-13.1,11-9.7,13.4s14-8.5,13-11.9-1.8-1.9-3.3-1.5Z"/>
  <path class="st0" d="M22.5,108.7c6.5-1.5,24.3-1.6,21.1,9.1s-18.3,5.9-22.6,4-4.4-11.7,1.5-13ZM23.5,112.6c-2.4.8-2.4,4.9,0,5.7s15.7,1,16.3-2.5-13.7-4.1-16.3-3.2Z"/>
  <path class="st0" d="M97.5,34.6c8.9-1.4,8.6,16.9,7.1,22.1s-11.9,5.7-12.8-1.7-1.6-19.2,5.8-20.4ZM97.3,39.5c-2,.6-3.6,18.7,2,17s3.6-18.7-2-17Z"/>
  <path class="st0" d="M43.5,56.7c6.8-2,20,11.4,17.9,17.9s-6.2,5-9.6,3.4-12.6-12.4-12.8-14.1,2.2-6.5,4.5-7.2ZM45.3,60.5c-5.6,1.6,5.4,12.5,7.5,13.5,3,1.4,5.9.3,4.2-3.2s-9.4-10.9-11.7-10.3Z"/>
  <path class="st0" d="M71.6,44.6l6.2,15.4c.3,2-3.3,3.5-4.8.8s-5.5-12.3-6.1-14.9,3.3-1.3,4.7-1.2Z"/>
  <polygon class="st0" points="129.8 44.5 123.3 61.5 122.2 62.4 118.8 61.4 125 44.6 129.8 44.5"/>
  <path class="st0" d="M44.8,90.5c.5.7.1,2.9-.9,3.5-1.6,1.2-13.3-3.5-15.3-4.8-3.2-2-1.9-5,1.5-4.6s14.3,5.2,14.7,5.9Z"/>
  <path class="st0" d="M151.9,90.5c.4-.7,13.8-5.8,14.7-5.9,3.4-.4,4.7,2.6,1.5,4.6s-13.7,5.9-15.3,4.8c-1.1-.6-1.4-2.8-.9-3.5Z"/>
  <path class="st0" d="M44.8,140.4c-.4.7-13.9,5.8-14.7,5.9-3.4.5-4.8-2.6-1.5-4.6s13.7-5.9,15.3-4.8c1.1.6,1.4,2.8.9,3.5Z"/>
  <path class="st0" d="M145.8,103.5c-.2,0-3.4,1.7-4,2-.8-5.2-4.5-9.6-4-15,.3.2,1.6-.3,2.3.2,2.7,1.6,4.5,9.6,5.7,12.8Z"/>
  <path class="st0" d="M135.8,87.5c-4.5-.2-9.2-5.9-10-10,.8.2,2.1-.2,3.3.2s6.9,5.9,7.3,6.8c.8,1.6-.6,2.7-.5,3Z"/>
  <path class="st0" d="M56.8,156.5c3,3-8,13.7-11.5,14-6.7-1.3,8.7-16.8,11.5-14Z"/>
  <path class="st0" d="M149.5,60.6c1.5-.4,2.8,0,3.3,1.5,1,3.4-9.4,14.4-13,11.9s8.3-13,9.7-13.4Z"/>
  <path class="st0" d="M23.5,112.6c2.6-.8,17-1.2,16.3,3.2s-13.8,3.3-16.3,2.5-2.4-4.9,0-5.7Z"/>
  <path class="st0" d="M97.3,39.5c5.6-1.8,4,16.3,2,17-5.6,1.8-4-16.3-2-17Z"/>
  <path class="st0" d="M45.3,60.5c2.3-.7,10.7,8.2,11.7,10.3,1.7,3.6-1.3,4.6-4.2,3.2s-13.1-11.9-7.5-13.5Z"/>
</svg>